<svg width="20" height="19" viewBox="0 0 20 19" fill="none" xmlns="http://www.w3.org/2000/svg">
<path d="M10.2809 4.97455C7.86277 4.97455 5.85913 6.94364 5.85913 9.39637C5.85913 11.8491 7.82822 13.8182 10.2809 13.8182C12.7337 13.8182 14.7028 11.8145 14.7028 9.39637C14.7028 6.97818 12.6991 4.97455 10.2809 4.97455ZM10.2809 12.2291C8.7264 12.2291 7.44822 10.9509 7.44822 9.39637C7.44822 7.84182 8.7264 6.56364 10.2809 6.56364C11.8355 6.56364 13.1137 7.84182 13.1137 9.39637C13.1137 10.9509 11.8355 12.2291 10.2809 12.2291Z" fill="white"/>
<path d="M14.8755 5.87272C15.4288 5.87272 15.8773 5.42419 15.8773 4.8709C15.8773 4.31761 15.4288 3.86908 14.8755 3.86908C14.3222 3.86908 13.8737 4.31761 13.8737 4.8709C13.8737 5.42419 14.3222 5.87272 14.8755 5.87272Z" fill="white"/>
<path d="M17.4663 2.28C16.5682 1.34727 15.29 0.863632 13.8391 0.863632H6.72271C3.71726 0.863632 1.71362 2.86727 1.71362 5.87272V12.9545C1.71362 14.44 2.19726 15.7182 3.16453 16.6509C4.09726 17.5491 5.3409 17.9982 6.75726 17.9982H13.8045C15.29 17.9982 16.5336 17.5145 17.4318 16.6509C18.3645 15.7527 18.8482 14.4745 18.8482 12.9891V5.87272C18.8482 4.42181 18.3645 3.17818 17.4663 2.28ZM17.3282 12.9891C17.3282 14.06 16.9482 14.9236 16.3263 15.5109C15.7045 16.0982 14.8409 16.4091 13.8045 16.4091H6.75726C5.7209 16.4091 4.85726 16.0982 4.23544 15.5109C3.61362 14.8891 3.30271 14.0255 3.30271 12.9545V5.87272C3.30271 4.83636 3.61362 3.97272 4.23544 3.3509C4.82271 2.76363 5.7209 2.45272 6.75726 2.45272H13.8736C14.91 2.45272 15.7736 2.76363 16.3954 3.38545C16.9827 4.00727 17.3282 4.8709 17.3282 5.87272V12.9891Z" fill="white"/>
</svg>
